:SAMPLES-PER-SECOND 30
:FULLY-SPECIFIED
:DEGREES
327
root  21.4952 38.6594 1.59833 -21.5057 83.5624 -16.5449
RightUpLeg  8.88322 -9.08635 0.879893
RightLeg  19.4349 5.35212 2.03733
RightFoot  -15.6409 -0.165774 -1.57739
RightToes  -4.65663e-010 0 -3.6325e-017
Spine  4.25928 1.83447 9.25074
Spine1  6.42772 3.50212 -5.84071
HEad  -16.6958 -3.05667 -4.88683
LeftShoulder1  -0.69076 5.21007 -34.3106
LeftArm  11.5092 16.4018 -36.7554
LeftForeArm  21.0671 -22.8498 -4.2472
LeftHand  -0.165395 8.72816 -3.79769
RightShoulder  -0.957303 -6.17233 29.3002
RightArm  21.0265 2.5852 46.9732
RightForeArm  6.71015 26.2589 5.2882
RightHand  0.0167126 4.11857 -0.0781363
LeftUpLeg  -16.8259 6.29912 5.3715
LeftLeg  -1.08609 4.25376 -0.49241
LeftFoot  0.821056 0.846399 -7.99068
LeftToes  8.74931e-010 -1.05764e-010 1.2659e-011
328
root  22.6614 38.4115 1.63469 -23.5944 83.2703 -18.6642
RightUpLeg  10.0083 -8.87934 0.777847
RightLeg  21.2165 5.73567 2.2562
RightFoot  -17.0508 -0.142835 -0.557938
RightToes  -4.65663e-010 0 -3.6325e-017
Spine  3.9801 1.78746 7.31116
Spine1  5.40169 3.24813 -5.37346
HEad  -15.6114 -4.43791 -3.86917
LeftShoulder1  -0.728387 5.31808 -33.9762
LeftArm  7.39748 18.4321 -34.624
LeftForeArm  21.9081 -30.8491 -5.47642
LeftHand  -0.0875847 7.59358 -2.32077
RightShoulder  -1.02598 -6.30634 30.0643
RightArm  22.6992 1.5617 47.0156
RightForeArm  6.74232 26.7829 5.4062
RightHand  -0.0126357 3.60079 -0.418299
LeftUpLeg  -18.2336 6.68979 5.26554
LeftLeg  2.99937 4.12918 -0.423063
LeftFoot  0.768994 0.712593 -6.75329
LeftToes  8.74931e-010 -1.05764e-010 1.2659e-011
329
root  23.9255 38.1527 1.74514 -22.684 82.8419 -17.6082
RightUpLeg  11.2448 -8.18734 0.460464
RightLeg  23.3768 5.95072 2.58856
RightFoot  -18.1209 -0.0615468 1.02391
RightToes  -4.65663e-010 0 -3.6325e-017
Spine  3.65824 1.9808 4.38986
Spine1  4.06601 3.25772 -4.9026
HEad  -13.8617 -6.40984 -2.59814
LeftShoulder1  -0.810444 5.54353 -33.5659
LeftArm  3.41078 21.1175 -31.7207
LeftForeArm  25.1753 -42.2217 -8.50723
LeftHand  -0.0647377 7.50373 -1.19955
RightShoulder  -1.04017 -6.32918 30.2584
RightArm  24.332 -0.345507 47.6067
RightForeArm  7.32517 27.6865 5.5841
RightHand  0.0530524 3.80746 0.412911
LeftUpLeg  -19.21 7.71414 4.68899
LeftLeg  8.6334 1.92561 -0.169969
LeftFoot  1.00161 0.584073 -5.41975
LeftToes  8.74931e-010 -1.05764e-010 1.2659e-011
330
root  25.2782 37.9648 1.90265 -22.1118 82.2005 -17.1318
RightUpLeg  12.4658 -7.80089 0.00546376
RightLeg  25.2602 7.04433 3.39056
RightFoot  -18.3113 0.0623474 3.05622
RightToes  -4.65663e-010 0 -3.6325e-017
Spine  1.69673 2.32659 1.72852
Spine1  4.15699 3.80552 -5.87822
HEad  -12.0323 -8.85386 -0.676591
LeftShoulder1  -0.891977 5.78213 -32.9667
LeftArm  0.641006 22.0096 -28.8436
LeftForeArm  29.6955 -54.0976 -13.1862
LeftHand  -0.0430783 6.58104 -0.736374
RightShoulder  -1.08793 -6.42322 30.7119
RightArm  26.7624 -2.16431 48.5858
RightForeArm  7.14182 28.6821 5.82822
RightHand  0.0806007 3.19746 0.853333
LeftUpLeg  -19.9129 9.07885 4.35692
LeftLeg  13.4203 -1.19131 -0.263706
LeftFoot  3.36617 0.428263 -3.68924
LeftToes  8.74931e-010 -1.05764e-010 1.2659e-011
331
root  26.6633 37.8151 2.1085 -23.9103 81.4553 -19.2829
RightUpLeg  13.2285 -8.08059 -0.455583
RightLeg  27.5915 9.11362 4.91106
RightFoot  -17.1854 0.146158 5.1797
RightToes  -4.65663e-010 0 -3.6325e-017
Spine  -0.0220748 2.59462 -1.38879
Spine1  2.92176 4.17496 -6.39209
HEad  -10.6501 -10.1892 1.33626
LeftShoulder1  -1.01615 6.11509 -32.7213
LeftArm  -1.07077 21.2525 -26.0545
LeftForeArm  35.7863 -64.9903 -20.8074
LeftHand  -0.0301561 5.83738 -0.467121
RightShoulder  -0.967679 -6.15623 29.9248
RightArm  29.7316 -4.54858 50.7708
RightForeArm  7.73683 29.6123 6.01948
RightHand  0.090281 3.20516 0.978498
LeftUpLeg  -20.6147 9.78705 4.99447
LeftLeg  17.4076 -2.13014 -0.43337
LeftFoot  7.1282 0.0212778 -0.282329
LeftToes  8.74931e-010 -1.05764e-010 1.2659e-011
332
root  28.0383 37.5921 2.33115 -32.6566 81.5998 -27.7694
RightUpLeg  14.4419 -9.96393 -1.31703
RightLeg  30.8782 12.4815 7.74627
RightFoot  -14.9463 0.204461 9.89649
RightToes  -4.65663e-010 0 -3.6325e-017
Spine  -0.798815 2.57939 -3.40811
Spine1  1.81783 4.59974 -8.26961
HEad  -9.19394 -12.4092 3.26291
LeftShoulder1  -0.911399 5.95382 -31.0321
LeftArm  -2.05763 16.9206 -25.5381
LeftForeArm  44.8548 -72.5455 -32.164
LeftHand  -0.0324844 5.8962 0.0723821
RightShoulder  -0.965759 -6.16106 29.7842
RightArm  32.8497 -6.35992 52.4634
RightForeArm  8.50103 31.6005 6.47199
RightHand  0.111267 4.11395 1.08868
LeftUpLeg  -21.9792 7.80204 6.58081
LeftLeg  24.9749 -0.958013 -0.157817
LeftFoot  2.80737 -0.157598 1.12536
LeftToes  8.74931e-010 -1.05764e-010 1.2659e-011
333
root  29.2658 37.3472 2.56629 -47.2416 81.2436 -41.6964
RightUpLeg  14.9506 -11.9232 -1.76312
RightLeg  36.0017 16.4442 12.2456
RightFoot  -11.0516 -0.120211 15.3042
RightToes  -4.65663e-010 0 -3.6325e-017
Spine  -0.898479 2.58967 -4.59976
Spine1  1.78096 5.1218 -10.1877
HEad  -9.47205 -13.8206 5.37431
LeftShoulder1  -0.867117 5.88445 -30.2529
LeftArm  -2.35933 8.65516 -26.1331
LeftForeArm  57.7656 -77.0801 -47.5659
LeftHand  -0.0300225 5.61168 0.337827
RightShoulder  -0.849341 -5.87451 29.2059
RightArm  35.3836 -6.91227 53.8654
RightForeArm  10.2303 35.1155 7.30713
RightHand  0.146977 4.0765 1.52226
LeftUpLeg  -22.427 5.98883 9.06516
LeftLeg  31.0498 -0.604149 -0.0432901
LeftFoot  -0.556747 -0.198031 2.1235
LeftToes  8.74931e-010 -1.05764e-010 1.2659e-011
334
root  30.311 37.0832 2.77063 -59.9523 79.711 -53.3074
RightUpLeg  14.5235 -12.8198 -1.45536
RightLeg  42.3984 18.3033 16.8653
RightFoot  -5.90055 -1.01324 20.1259
RightToes  -4.65663e-010 0 -3.6325e-017
Spine  0.193342 2.84602 -5.07616
Spine1  1.94977 5.81811 -12.1582
HEad  -10.8861 -13.7569 6.42568
LeftShoulder1  -0.882366 5.94467 -29.9647
LeftArm  -1.42848 -1.75232 -28.3788
LeftForeArm  71.0839 -79.0933 -62.1007
LeftHand  -0.0271858 5.17277 0.170327
RightShoulder  -0.634 -5.35545 27.4692
RightArm  37.702 -5.98457 55.2677
RightForeArm  11.7796 39.5801 8.52369
RightHand  0.212359 4.77083 2.14742
LeftUpLeg  -22.1376 4.59636 12.1
LeftLeg  36.2658 -0.231851 0.17753
LeftFoot  -4.06166 -0.132319 2.4416
LeftToes  8.74931e-010 -1.05764e-010 1.2659e-011
